<?xml version="1.0" standalone="no"?>
<!DOCTYPE svg PUBLIC "-//W3C//DTD SVG 20010904//EN"
 "http://www.w3.org/TR/2001/REC-SVG-20010904/DTD/svg10.dtd">
<svg version="1.0" xmlns="http://www.w3.org/2000/svg"
 width="888.000000pt" height="202.000000pt" viewBox="0 0 888.000000 202.000000"
 preserveAspectRatio="xMidYMid meet">

<g transform="translate(0.000000,202.000000) scale(0.100000,-0.100000)"
fill="#000000" stroke="none">
<path d="M7500 1625 l0 -135 275 0 275 0 0 -407 0 -408 135 135 135 135 -2
405 -3 405 -407 3 -408 2 0 -135z"/>
<path d="M7095 1350 l-130 -130 133 0 132 0 0 130 c0 72 -1 130 -3 130 -1 0
-61 -58 -132 -130z"/>
<path d="M784 1395 c-147 -32 -240 -122 -260 -252 -14 -90 35 -196 115 -249
22 -14 106 -54 186 -89 81 -35 156 -71 166 -81 36 -33 27 -100 -19 -131 -20
-13 -46 -18 -102 -18 -82 0 -133 16 -213 67 -27 17 -52 27 -56 22 -4 -5 -33
-39 -65 -76 l-57 -66 43 -30 c136 -93 279 -128 423 -103 135 24 225 86 273
190 21 46 24 64 20 126 -10 150 -80 211 -368 317 -83 31 -120 62 -120 101 0
46 24 75 73 88 73 19 180 -3 250 -53 25 -18 30 -18 40 -5 7 9 32 40 55 71 l44
55 -29 25 c-63 55 -209 107 -298 105 -22 0 -68 -7 -101 -14z"/>
<path d="M1880 1399 c-30 -5 -87 -25 -127 -44 -161 -79 -253 -248 -253 -465 0
-276 147 -463 392 -502 90 -13 183 -1 252 34 49 24 126 85 126 99 0 6 -26 39
-57 75 l-57 64 -25 -24 c-33 -31 -108 -65 -144 -66 -107 -1 -208 76 -241 184
-25 78 -25 203 -1 280 51 163 215 231 350 145 l48 -30 51 57 c74 82 73 79 19
119 -94 68 -213 95 -333 74z"/>
<path d="M2731 1358 c-109 -348 -291 -940 -291 -948 0 -6 42 -10 110 -10 l109
0 10 38 c5 20 14 56 20 80 6 23 16 60 21 82 l11 41 151 -3 152 -3 29 -117 29
-118 114 0 c76 0 114 4 114 11 0 8 -212 697 -291 947 l-11 32 -133 0 -133 0
-11 -32z m195 -343 l51 -205 -103 0 c-57 0 -104 3 -104 8 -1 17 95 402 100
402 3 0 28 -92 56 -205z"/>
<path d="M3590 895 l0 -495 330 0 330 0 0 90 0 90 -217 2 -218 3 -3 403 -2
402 -110 0 -110 0 0 -495z"/>
<path d="M4580 895 l0 -495 330 0 330 0 0 90 0 90 -220 0 -220 0 0 120 0 120
180 0 180 0 0 90 0 90 -180 0 -180 0 0 100 0 100 215 0 215 0 0 95 0 95 -325
0 -325 0 0 -495z"/>
<path d="M5550 896 l0 -496 110 0 110 0 0 180 0 180 58 0 59 0 94 -180 94
-179 123 -1 c67 0 122 2 122 5 0 3 -47 89 -105 192 -58 103 -104 190 -103 194
2 4 23 22 48 41 109 82 144 216 99 368 -19 64 -88 131 -164 160 -55 22 -79 24
-302 28 l-243 4 0 -496z m446 299 c89 -37 84 -193 -8 -241 -21 -11 -66 -19
-125 -22 l-93 -5 0 148 0 148 97 -7 c54 -4 112 -14 129 -21z"/>
<path d="M7780 538 l0 -133 130 130 c72 71 130 131 130 132 0 2 -58 3 -130 3
l-130 0 0 -132z"/>
</g>
</svg>
